<svg width="220" height="220" viewBox="0 0 220 220" fill="none" xmlns="http://www.w3.org/2000/svg">
<path d="M110 220C170.751 220 220 170.751 220 110C220 49.2487 170.751 0 110 0C49.2487 0 0 49.2487 0 110C0 170.751 49.2487 220 110 220Z" fill="#23292F"/>
<path d="M158.606 55H178.475L137.122 95.9544C129.892 103.078 120.15 107.071 110 107.071C99.8504 107.071 90.1081 103.078 82.8781 95.9544L41.4906 55H61.3938L92.8125 86.0956C97.3878 90.6115 103.558 93.1436 109.986 93.1436C116.415 93.1436 122.585 90.6115 127.16 86.0956L158.606 55ZM61.1531 168.871H41.25L82.8781 127.669C90.1081 120.545 99.8504 116.552 110 116.552C120.15 116.552 129.892 120.545 137.122 127.669L178.75 168.864H158.847L127.188 137.5C122.612 132.984 116.442 130.452 110.014 130.452C103.585 130.452 97.4153 132.984 92.84 137.5L61.1462 168.871H61.1531Z" fill="white"/>
</svg>
